<svg width="40" height="64" viewBox="0 0 40 64" fill="none" xmlns="http://www.w3.org/2000/svg">
<path d="M20 63C30.4934 63 39 54.4934 39 44C39 33.5066 30.4934 25 20 25C9.50659 25 1 33.5066 1 44C1 54.4934 9.50659 63 20 63Z" fill="white" stroke="black" stroke-width="2"/>
<path d="M31.6664 49.0922L27.8143 39.0067L27.8117 39H27.7357L26.9424 41.0726L25.4983 44.8457L25.4949 44.8427C24.9944 44.4227 24.2883 44.1602 23.399 44.0624L23.1277 44.0358L23.3968 44.003C24.8634 43.7524 25.8492 42.8716 25.8492 41.8104C25.8492 40.3552 24.4099 39.3394 22.3482 39.3394H18.0586V39.4131H19.3051V46.9325L16.2779 39.0067L16.2752 39H16.1992L15.406 41.0726L12.3464 49.0663L12.3276 49.0684C12.2753 49.0745 12.2236 49.0794 12.1724 49.0831C12.0954 49.0888 12.0189 49.0922 11.9422 49.0922H8.85075L14.7271 39.4131L14.7708 39.3403H7.58377V42.3346H7.66003C7.67355 40.8761 8.5667 39.4131 10.54 39.4131H12.9208L7 49.1648H14.9764V46.2961H14.9001C14.8897 47.5673 14.132 48.7746 12.4842 49.0473L12.4318 49.0558L13.6867 45.7756H17.2022L18.4689 49.0922H17.2193V49.1648H22.1238V49.0922H20.8689V44.0893H22.3169C23.7904 44.0893 24.6356 44.7153 24.6356 45.8063V46.6938C24.6356 46.7916 24.6426 46.9345 24.6503 47.0541V47.0585L23.872 49.0918H22.8553V49.1643H24.9599V49.0918H23.954L24.6628 47.2402C24.6643 47.2581 24.665 47.2689 24.665 47.2689L24.6845 47.4358L24.7034 47.5461C24.8216 48.2289 25.0963 48.7308 25.5193 49.0379L25.5801 49.0799C25.9016 49.2924 26.301 49.4 26.7679 49.4C27.3865 49.4 27.7989 49.2534 28.1394 48.9082L28.0948 48.8683C27.781 49.1437 27.5177 49.2552 27.1878 49.2552C26.6258 49.2552 26.3316 48.6069 26.3316 47.9675V46.7241C26.3346 46.4156 26.2838 46.1087 26.1813 45.816L26.1673 45.7774V45.7761H28.7386L30.0054 49.0927H28.7558V49.1652H33V49.0927L31.6664 49.0922ZM13.7147 45.7031L15.4465 41.1786L17.1744 45.7031H13.7147ZM20.8696 44.0165V39.4131H21.9749C23.4514 39.4131 24.2309 40.2478 24.2309 41.826C24.2309 43.5045 23.7834 44.0165 22.3169 44.0165H20.8696ZM26.1373 45.7031L26.1299 45.6852C26.0156 45.4205 25.8492 45.179 25.6397 44.9737L25.5673 44.9049L25.5596 44.898L26.982 41.1786L28.7099 45.7031H26.1373Z" fill="black"/>
</svg>
